<mxfile host="app.diagrams.net" modified="2024-06-19T09:48:37.131Z" agent="Mozilla/5.0 (X11; Linux x86_64; rv:127.0) Gecko/20100101 Firefox/127.0" etag="e2oI1pys1Hwi9fCENf7n" version="24.5.5" type="device">
  <diagram name="Page-1" id="c9JEq32baNURkXDMHkp5">
    <mxGraphModel dx="562" dy="293" grid="1" gridSize="10" guides="1" tooltips="1" connect="1" arrows="1" fold="1" page="1" pageScale="1" pageWidth="827" pageHeight="1169" math="0" shadow="0">
      <root>
        <mxCell id="0" />
        <mxCell id="1" parent="0" />
        <mxCell id="JRM3AFsaAE5Z8g0I-txR-5" value="App web" style="shape=folder;fontStyle=1;tabWidth=110;tabHeight=30;tabPosition=left;html=1;boundedLbl=1;labelInHeader=1;container=1;collapsible=0;whiteSpace=wrap;" parent="1" vertex="1">
          <mxGeometry x="150" y="130" width="550" height="600" as="geometry" />
        </mxCell>
        <mxCell id="JRM3AFsaAE5Z8g0I-txR-6" value="" style="html=1;strokeColor=none;resizeWidth=1;resizeHeight=1;fillColor=none;part=1;connectable=0;allowArrows=0;deletable=0;whiteSpace=wrap;" parent="JRM3AFsaAE5Z8g0I-txR-5" vertex="1">
          <mxGeometry width="550" height="420" relative="1" as="geometry">
            <mxPoint y="30" as="offset" />
          </mxGeometry>
        </mxCell>
        <mxCell id="JRM3AFsaAE5Z8g0I-txR-17" value="Espace dirigeant" style="shape=folder;fontStyle=1;tabWidth=110;tabHeight=30;tabPosition=left;html=1;boundedLbl=1;labelInHeader=1;container=1;collapsible=0;whiteSpace=wrap;" parent="JRM3AFsaAE5Z8g0I-txR-5" vertex="1">
          <mxGeometry x="10" y="40" width="270" height="265" as="geometry" />
        </mxCell>
        <mxCell id="JRM3AFsaAE5Z8g0I-txR-18" value="" style="html=1;strokeColor=none;resizeWidth=1;resizeHeight=1;fillColor=none;part=1;connectable=0;allowArrows=0;deletable=0;whiteSpace=wrap;" parent="JRM3AFsaAE5Z8g0I-txR-17" vertex="1">
          <mxGeometry width="219.99999999999997" height="161" relative="1" as="geometry">
            <mxPoint y="30" as="offset" />
          </mxGeometry>
        </mxCell>
        <mxCell id="JRM3AFsaAE5Z8g0I-txR-13" value="Saisir nouvel élève" style="ellipse;whiteSpace=wrap;html=1;" parent="JRM3AFsaAE5Z8g0I-txR-17" vertex="1">
          <mxGeometry x="28.750000000000004" y="32.5" width="72.77" height="60" as="geometry" />
        </mxCell>
        <mxCell id="JRM3AFsaAE5Z8g0I-txR-14" value="Saisir professeur et ses matières" style="ellipse;whiteSpace=wrap;html=1;" parent="JRM3AFsaAE5Z8g0I-txR-17" vertex="1">
          <mxGeometry x="20.13" y="105" width="90" height="55" as="geometry" />
        </mxCell>
        <mxCell id="JRM3AFsaAE5Z8g0I-txR-15" value="Saisir nouvelle classe" style="ellipse;whiteSpace=wrap;html=1;" parent="JRM3AFsaAE5Z8g0I-txR-17" vertex="1">
          <mxGeometry x="28.740000000000002" y="162" width="76.38" height="55" as="geometry" />
        </mxCell>
        <mxCell id="JRM3AFsaAE5Z8g0I-txR-19" value="Saisir date de conseil de classe" style="ellipse;whiteSpace=wrap;html=1;" parent="JRM3AFsaAE5Z8g0I-txR-17" vertex="1">
          <mxGeometry x="140" y="40" width="100" height="45" as="geometry" />
        </mxCell>
        <mxCell id="JRM3AFsaAE5Z8g0I-txR-20" value="Saisir date de vacances scolaires" style="ellipse;whiteSpace=wrap;html=1;" parent="JRM3AFsaAE5Z8g0I-txR-17" vertex="1">
          <mxGeometry x="140" y="98" width="100" height="62" as="geometry" />
        </mxCell>
        <mxCell id="JRM3AFsaAE5Z8g0I-txR-21" value="Ajouter une semaine type" style="ellipse;whiteSpace=wrap;html=1;" parent="JRM3AFsaAE5Z8g0I-txR-17" vertex="1">
          <mxGeometry x="145" y="162" width="90" height="46" as="geometry" />
        </mxCell>
        <mxCell id="JRM3AFsaAE5Z8g0I-txR-22" value="Modifier une semaine type" style="ellipse;whiteSpace=wrap;html=1;" parent="JRM3AFsaAE5Z8g0I-txR-17" vertex="1">
          <mxGeometry x="145" y="217" width="90" height="46" as="geometry" />
        </mxCell>
        <mxCell id="JRM3AFsaAE5Z8g0I-txR-23" value="Retirer une semaine type" style="ellipse;whiteSpace=wrap;html=1;" parent="JRM3AFsaAE5Z8g0I-txR-17" vertex="1">
          <mxGeometry x="21.930000000000007" y="217" width="90" height="46" as="geometry" />
        </mxCell>
        <mxCell id="JRM3AFsaAE5Z8g0I-txR-24" value="Espace Parent" style="shape=folder;fontStyle=1;tabWidth=110;tabHeight=30;tabPosition=left;html=1;boundedLbl=1;labelInHeader=1;container=1;collapsible=0;whiteSpace=wrap;" parent="JRM3AFsaAE5Z8g0I-txR-5" vertex="1">
          <mxGeometry x="10" y="330" width="270" height="260" as="geometry" />
        </mxCell>
        <mxCell id="JRM3AFsaAE5Z8g0I-txR-25" value="" style="html=1;strokeColor=none;resizeWidth=1;resizeHeight=1;fillColor=none;part=1;connectable=0;allowArrows=0;deletable=0;whiteSpace=wrap;" parent="JRM3AFsaAE5Z8g0I-txR-24" vertex="1">
          <mxGeometry width="270" height="182" relative="1" as="geometry">
            <mxPoint y="30" as="offset" />
          </mxGeometry>
        </mxCell>
        <mxCell id="JRM3AFsaAE5Z8g0I-txR-35" value="Consulter les notes de l&#39;élève" style="ellipse;whiteSpace=wrap;html=1;" parent="JRM3AFsaAE5Z8g0I-txR-24" vertex="1">
          <mxGeometry x="10" y="40" width="90" height="50" as="geometry" />
        </mxCell>
        <mxCell id="JRM3AFsaAE5Z8g0I-txR-36" value="Consulter le bulletin" style="ellipse;whiteSpace=wrap;html=1;" parent="JRM3AFsaAE5Z8g0I-txR-24" vertex="1">
          <mxGeometry x="10" y="100" width="90" height="50" as="geometry" />
        </mxCell>
        <mxCell id="JRM3AFsaAE5Z8g0I-txR-37" value="Exporter un bulletin au format PDF" style="ellipse;whiteSpace=wrap;html=1;" parent="JRM3AFsaAE5Z8g0I-txR-24" vertex="1">
          <mxGeometry x="10" y="170" width="90" height="50" as="geometry" />
        </mxCell>
        <mxCell id="JRM3AFsaAE5Z8g0I-txR-26" value="Espace Professeur" style="shape=folder;fontStyle=1;tabWidth=110;tabHeight=30;tabPosition=left;html=1;boundedLbl=1;labelInHeader=1;container=1;collapsible=0;whiteSpace=wrap;" parent="JRM3AFsaAE5Z8g0I-txR-5" vertex="1">
          <mxGeometry x="333" y="45" width="207" height="545" as="geometry" />
        </mxCell>
        <mxCell id="JRM3AFsaAE5Z8g0I-txR-27" value="" style="html=1;strokeColor=none;resizeWidth=1;resizeHeight=1;fillColor=none;part=1;connectable=0;allowArrows=0;deletable=0;whiteSpace=wrap;" parent="JRM3AFsaAE5Z8g0I-txR-26" vertex="1">
          <mxGeometry width="206.99999999999997" height="381.5" relative="1" as="geometry">
            <mxPoint y="30" as="offset" />
          </mxGeometry>
        </mxCell>
        <mxCell id="JRM3AFsaAE5Z8g0I-txR-41" value="Lister les notes d&#39;un élève" style="ellipse;whiteSpace=wrap;html=1;" parent="JRM3AFsaAE5Z8g0I-txR-26" vertex="1">
          <mxGeometry x="62" y="40" width="83" height="50" as="geometry" />
        </mxCell>
        <mxCell id="JRM3AFsaAE5Z8g0I-txR-42" value="Saisir une note avec un coefficient et une appréciation" style="ellipse;whiteSpace=wrap;html=1;" parent="JRM3AFsaAE5Z8g0I-txR-26" vertex="1">
          <mxGeometry x="34.5" y="95" width="138" height="75" as="geometry" />
        </mxCell>
        <mxCell id="JRM3AFsaAE5Z8g0I-txR-43" value="&lt;p&gt;Saisir une appréciation pour un conseil de classe &lt;/p&gt;" style="ellipse;whiteSpace=wrap;html=1;" parent="JRM3AFsaAE5Z8g0I-txR-26" vertex="1">
          <mxGeometry x="31" y="170" width="145" height="60" as="geometry" />
        </mxCell>
        <mxCell id="JRM3AFsaAE5Z8g0I-txR-44" value="&lt;p&gt;Saisir une appréciation pour un élève&lt;br&gt;&lt;/p&gt;" style="ellipse;whiteSpace=wrap;html=1;" parent="JRM3AFsaAE5Z8g0I-txR-26" vertex="1">
          <mxGeometry x="46.5" y="235" width="114" height="65" as="geometry" />
        </mxCell>
        <mxCell id="JRM3AFsaAE5Z8g0I-txR-45" value="&lt;p&gt;Saisir une appréciation pour leur matière.&lt;/p&gt;" style="ellipse;whiteSpace=wrap;html=1;" parent="JRM3AFsaAE5Z8g0I-txR-26" vertex="1">
          <mxGeometry x="34.5" y="305" width="140" height="70" as="geometry" />
        </mxCell>
        <mxCell id="JRM3AFsaAE5Z8g0I-txR-46" value="&lt;p&gt;Saisir l’appréciation globale du conseil de classe. &lt;/p&gt;" style="ellipse;whiteSpace=wrap;html=1;" parent="JRM3AFsaAE5Z8g0I-txR-26" vertex="1">
          <mxGeometry x="36" y="380" width="140" height="70" as="geometry" />
        </mxCell>
        <mxCell id="JRM3AFsaAE5Z8g0I-txR-47" value="&lt;p&gt; &lt;/p&gt;&lt;p&gt;Modifier le/la professeur(e) associée à un cours en cas d’absence.&lt;/p&gt;" style="ellipse;whiteSpace=wrap;html=1;" parent="JRM3AFsaAE5Z8g0I-txR-26" vertex="1">
          <mxGeometry x="27.5" y="455" width="154" height="75" as="geometry" />
        </mxCell>
        <mxCell id="JRM3AFsaAE5Z8g0I-txR-28" style="edgeStyle=orthogonalEdgeStyle;rounded=0;orthogonalLoop=1;jettySize=auto;html=1;exitX=0.5;exitY=0.5;exitDx=0;exitDy=0;exitPerimeter=0;entryX=0;entryY=0.5;entryDx=0;entryDy=0;" parent="1" source="JRM3AFsaAE5Z8g0I-txR-8" target="JRM3AFsaAE5Z8g0I-txR-23" edge="1">
          <mxGeometry relative="1" as="geometry">
            <Array as="points">
              <mxPoint x="150" y="270" />
              <mxPoint x="150" y="410" />
            </Array>
          </mxGeometry>
        </mxCell>
        <mxCell id="JRM3AFsaAE5Z8g0I-txR-29" style="edgeStyle=orthogonalEdgeStyle;rounded=0;orthogonalLoop=1;jettySize=auto;html=1;exitX=0.5;exitY=0.5;exitDx=0;exitDy=0;exitPerimeter=0;entryX=0;entryY=0.5;entryDx=0;entryDy=0;" parent="1" source="JRM3AFsaAE5Z8g0I-txR-8" target="JRM3AFsaAE5Z8g0I-txR-15" edge="1">
          <mxGeometry relative="1" as="geometry">
            <Array as="points">
              <mxPoint x="150" y="270" />
              <mxPoint x="150" y="359" />
            </Array>
          </mxGeometry>
        </mxCell>
        <mxCell id="JRM3AFsaAE5Z8g0I-txR-30" style="edgeStyle=orthogonalEdgeStyle;rounded=0;orthogonalLoop=1;jettySize=auto;html=1;exitX=0.5;exitY=0.5;exitDx=0;exitDy=0;exitPerimeter=0;entryX=0;entryY=0.5;entryDx=0;entryDy=0;" parent="1" source="JRM3AFsaAE5Z8g0I-txR-8" target="JRM3AFsaAE5Z8g0I-txR-14" edge="1">
          <mxGeometry relative="1" as="geometry">
            <Array as="points">
              <mxPoint x="150" y="270" />
              <mxPoint x="150" y="302" />
            </Array>
          </mxGeometry>
        </mxCell>
        <mxCell id="JRM3AFsaAE5Z8g0I-txR-31" style="edgeStyle=orthogonalEdgeStyle;rounded=0;orthogonalLoop=1;jettySize=auto;html=1;exitX=0.5;exitY=0.5;exitDx=0;exitDy=0;exitPerimeter=0;entryX=0;entryY=0.5;entryDx=0;entryDy=0;" parent="1" source="JRM3AFsaAE5Z8g0I-txR-8" target="JRM3AFsaAE5Z8g0I-txR-13" edge="1">
          <mxGeometry relative="1" as="geometry">
            <Array as="points">
              <mxPoint x="150" y="270" />
              <mxPoint x="150" y="233" />
            </Array>
          </mxGeometry>
        </mxCell>
        <mxCell id="JRM3AFsaAE5Z8g0I-txR-32" style="edgeStyle=orthogonalEdgeStyle;rounded=0;orthogonalLoop=1;jettySize=auto;html=1;exitX=0.5;exitY=0.5;exitDx=0;exitDy=0;exitPerimeter=0;entryX=0;entryY=0.5;entryDx=0;entryDy=0;" parent="1" source="JRM3AFsaAE5Z8g0I-txR-8" target="JRM3AFsaAE5Z8g0I-txR-19" edge="1">
          <mxGeometry relative="1" as="geometry">
            <Array as="points">
              <mxPoint x="280" y="270" />
              <mxPoint x="280" y="233" />
            </Array>
          </mxGeometry>
        </mxCell>
        <mxCell id="JRM3AFsaAE5Z8g0I-txR-33" style="edgeStyle=orthogonalEdgeStyle;rounded=0;orthogonalLoop=1;jettySize=auto;html=1;exitX=0.5;exitY=0.5;exitDx=0;exitDy=0;exitPerimeter=0;entryX=0;entryY=0.5;entryDx=0;entryDy=0;" parent="1" source="JRM3AFsaAE5Z8g0I-txR-8" target="JRM3AFsaAE5Z8g0I-txR-20" edge="1">
          <mxGeometry relative="1" as="geometry">
            <Array as="points">
              <mxPoint x="280" y="270" />
              <mxPoint x="280" y="299" />
            </Array>
          </mxGeometry>
        </mxCell>
        <mxCell id="sfAEgFeNzfs1CsbXX6Og-4" style="edgeStyle=orthogonalEdgeStyle;rounded=0;orthogonalLoop=1;jettySize=auto;html=1;exitX=0.5;exitY=0.5;exitDx=0;exitDy=0;exitPerimeter=0;entryX=0;entryY=0.5;entryDx=0;entryDy=0;" edge="1" parent="1" source="JRM3AFsaAE5Z8g0I-txR-8" target="JRM3AFsaAE5Z8g0I-txR-21">
          <mxGeometry relative="1" as="geometry">
            <Array as="points">
              <mxPoint x="280" y="270" />
              <mxPoint x="280" y="355" />
            </Array>
          </mxGeometry>
        </mxCell>
        <mxCell id="sfAEgFeNzfs1CsbXX6Og-5" style="edgeStyle=orthogonalEdgeStyle;rounded=0;orthogonalLoop=1;jettySize=auto;html=1;exitX=0.5;exitY=0.5;exitDx=0;exitDy=0;exitPerimeter=0;entryX=0;entryY=0.5;entryDx=0;entryDy=0;" edge="1" parent="1" source="JRM3AFsaAE5Z8g0I-txR-8" target="JRM3AFsaAE5Z8g0I-txR-22">
          <mxGeometry relative="1" as="geometry">
            <Array as="points">
              <mxPoint x="280" y="270" />
              <mxPoint x="280" y="410" />
            </Array>
          </mxGeometry>
        </mxCell>
        <mxCell id="JRM3AFsaAE5Z8g0I-txR-8" value="Équipe Dirigeante" style="shape=umlActor;verticalLabelPosition=bottom;verticalAlign=top;html=1;" parent="1" vertex="1">
          <mxGeometry x="70" y="240" width="30" height="60" as="geometry" />
        </mxCell>
        <mxCell id="JRM3AFsaAE5Z8g0I-txR-48" style="edgeStyle=orthogonalEdgeStyle;rounded=0;orthogonalLoop=1;jettySize=auto;html=1;exitX=0.5;exitY=0.5;exitDx=0;exitDy=0;exitPerimeter=0;entryX=1;entryY=0.5;entryDx=0;entryDy=0;" parent="1" source="JRM3AFsaAE5Z8g0I-txR-9" target="JRM3AFsaAE5Z8g0I-txR-47" edge="1">
          <mxGeometry relative="1" as="geometry">
            <Array as="points">
              <mxPoint x="750" y="540" />
              <mxPoint x="750" y="668" />
            </Array>
          </mxGeometry>
        </mxCell>
        <mxCell id="JRM3AFsaAE5Z8g0I-txR-49" style="edgeStyle=orthogonalEdgeStyle;rounded=0;orthogonalLoop=1;jettySize=auto;html=1;exitX=0.5;exitY=0.5;exitDx=0;exitDy=0;exitPerimeter=0;entryX=1;entryY=0.5;entryDx=0;entryDy=0;" parent="1" source="JRM3AFsaAE5Z8g0I-txR-9" target="JRM3AFsaAE5Z8g0I-txR-46" edge="1">
          <mxGeometry relative="1" as="geometry">
            <Array as="points">
              <mxPoint x="750" y="540" />
              <mxPoint x="750" y="590" />
            </Array>
          </mxGeometry>
        </mxCell>
        <mxCell id="sfAEgFeNzfs1CsbXX6Og-2" style="edgeStyle=orthogonalEdgeStyle;rounded=0;orthogonalLoop=1;jettySize=auto;html=1;exitX=0.5;exitY=0;exitDx=0;exitDy=0;exitPerimeter=0;" edge="1" parent="1" source="JRM3AFsaAE5Z8g0I-txR-9">
          <mxGeometry relative="1" as="geometry">
            <mxPoint x="855.2" y="290" as="targetPoint" />
          </mxGeometry>
        </mxCell>
        <mxCell id="JRM3AFsaAE5Z8g0I-txR-9" value="Professeur Principal" style="shape=umlActor;verticalLabelPosition=bottom;verticalAlign=top;html=1;" parent="1" vertex="1">
          <mxGeometry x="840" y="510" width="30" height="60" as="geometry" />
        </mxCell>
        <mxCell id="JRM3AFsaAE5Z8g0I-txR-56" style="edgeStyle=orthogonalEdgeStyle;rounded=0;orthogonalLoop=1;jettySize=auto;html=1;exitX=0.5;exitY=0.5;exitDx=0;exitDy=0;exitPerimeter=0;entryX=1;entryY=0.5;entryDx=0;entryDy=0;" parent="1" source="JRM3AFsaAE5Z8g0I-txR-10" target="JRM3AFsaAE5Z8g0I-txR-42" edge="1">
          <mxGeometry relative="1" as="geometry">
            <Array as="points">
              <mxPoint x="750" y="240" />
              <mxPoint x="750" y="308" />
            </Array>
          </mxGeometry>
        </mxCell>
        <mxCell id="JRM3AFsaAE5Z8g0I-txR-57" style="edgeStyle=orthogonalEdgeStyle;rounded=0;orthogonalLoop=1;jettySize=auto;html=1;exitX=0.5;exitY=0.5;exitDx=0;exitDy=0;exitPerimeter=0;entryX=1;entryY=0.5;entryDx=0;entryDy=0;" parent="1" source="JRM3AFsaAE5Z8g0I-txR-10" target="JRM3AFsaAE5Z8g0I-txR-44" edge="1">
          <mxGeometry relative="1" as="geometry">
            <Array as="points">
              <mxPoint x="750" y="240" />
              <mxPoint x="750" y="443" />
            </Array>
          </mxGeometry>
        </mxCell>
        <mxCell id="JRM3AFsaAE5Z8g0I-txR-58" style="edgeStyle=orthogonalEdgeStyle;rounded=0;orthogonalLoop=1;jettySize=auto;html=1;exitX=0.5;exitY=0.5;exitDx=0;exitDy=0;exitPerimeter=0;entryX=1;entryY=0.5;entryDx=0;entryDy=0;" parent="1" source="JRM3AFsaAE5Z8g0I-txR-10" target="JRM3AFsaAE5Z8g0I-txR-45" edge="1">
          <mxGeometry relative="1" as="geometry" />
        </mxCell>
        <mxCell id="JRM3AFsaAE5Z8g0I-txR-59" style="edgeStyle=orthogonalEdgeStyle;rounded=0;orthogonalLoop=1;jettySize=auto;html=1;exitX=0.5;exitY=0.5;exitDx=0;exitDy=0;exitPerimeter=0;entryX=1;entryY=0.5;entryDx=0;entryDy=0;" parent="1" source="JRM3AFsaAE5Z8g0I-txR-10" target="JRM3AFsaAE5Z8g0I-txR-41" edge="1">
          <mxGeometry relative="1" as="geometry" />
        </mxCell>
        <mxCell id="JRM3AFsaAE5Z8g0I-txR-10" value="Professeur" style="shape=umlActor;verticalLabelPosition=bottom;verticalAlign=top;html=1;" parent="1" vertex="1">
          <mxGeometry x="840" y="210" width="30" height="60" as="geometry" />
        </mxCell>
        <mxCell id="JRM3AFsaAE5Z8g0I-txR-38" style="edgeStyle=orthogonalEdgeStyle;rounded=0;orthogonalLoop=1;jettySize=auto;html=1;exitX=0.5;exitY=0.5;exitDx=0;exitDy=0;exitPerimeter=0;entryX=0;entryY=0.5;entryDx=0;entryDy=0;" parent="1" source="JRM3AFsaAE5Z8g0I-txR-11" target="JRM3AFsaAE5Z8g0I-txR-35" edge="1">
          <mxGeometry relative="1" as="geometry" />
        </mxCell>
        <mxCell id="JRM3AFsaAE5Z8g0I-txR-40" style="edgeStyle=orthogonalEdgeStyle;rounded=0;orthogonalLoop=1;jettySize=auto;html=1;exitX=0.5;exitY=0.5;exitDx=0;exitDy=0;exitPerimeter=0;entryX=0;entryY=0.5;entryDx=0;entryDy=0;" parent="1" source="JRM3AFsaAE5Z8g0I-txR-11" target="JRM3AFsaAE5Z8g0I-txR-36" edge="1">
          <mxGeometry relative="1" as="geometry" />
        </mxCell>
        <mxCell id="sfAEgFeNzfs1CsbXX6Og-3" style="edgeStyle=orthogonalEdgeStyle;rounded=0;orthogonalLoop=1;jettySize=auto;html=1;exitX=0.5;exitY=0.5;exitDx=0;exitDy=0;exitPerimeter=0;entryX=0;entryY=0.5;entryDx=0;entryDy=0;" edge="1" parent="1" source="JRM3AFsaAE5Z8g0I-txR-11" target="JRM3AFsaAE5Z8g0I-txR-37">
          <mxGeometry relative="1" as="geometry" />
        </mxCell>
        <mxCell id="JRM3AFsaAE5Z8g0I-txR-11" value="&lt;div&gt;Parent d&#39;élève&lt;/div&gt;" style="shape=umlActor;verticalLabelPosition=bottom;verticalAlign=top;html=1;" parent="1" vertex="1">
          <mxGeometry x="70" y="390" width="30" height="60" as="geometry" />
        </mxCell>
        <mxCell id="sfAEgFeNzfs1CsbXX6Og-1" value="Tous les CU nécessitent d&#39;être authentifié" style="shape=note2;boundedLbl=1;whiteSpace=wrap;html=1;size=25;verticalAlign=top;align=center;" vertex="1" parent="1">
          <mxGeometry x="155" y="50" width="120" height="60" as="geometry" />
        </mxCell>
      </root>
    </mxGraphModel>
  </diagram>
</mxfile>
